<svg width="301" height="382" viewBox="0 0 301 382" fill="none" xmlns="http://www.w3.org/2000/svg">
<path fill-rule="evenodd" clip-rule="evenodd" d="M150.177 331.268C121.797 358.487 62.1425 400.765 23.9218 370.649C-18.5423 337.19 6.16688 237.312 17.5527 205.595C41.8762 137.835 107.32 33.011 149.597 0C184.924 26.6404 239.981 103.729 268.319 171.425C299.593 246.134 317.548 334.743 275.271 369.491C237.398 400.62 174.501 356.171 150.177 331.268ZM147.375 285.884C124.242 308.083 71.5262 358.672 47.0884 344.009C18.1324 326.635 44.7711 235.924 54.6134 208.49C73.7286 155.209 112.527 88.6083 150.174 49.2268C173.919 73.5507 214.109 134.102 235.884 184.745C262.529 246.713 279.324 325.476 253.262 344.009C228.966 361.286 168.494 301.897 150.176 283.199C149.299 284.037 148.364 284.935 147.375 285.884Z" fill="#011627"/>
<circle cx="149.795" cy="190.534" r="34.5" fill="#011627"/>
</svg>
